<?xml version="1.0" encoding="UTF-8"?>
<!-- Generated by Pixelmator Pro 3.3.6 -->
<svg width="800" height="800" viewBox="0 0 800 800" xmlns="http://www.w3.org/2000/svg">
    <g id="Agrupar">
        <path id="Trazado" fill="#69b6a9" stroke="none" d="M 676.253113 127.251587 L 676.253113 742.606262 C 676.253113 774.289063 649.5047 800 616.393738 800 L 59.860939 800 C 58.042187 800 56.225002 799.8703 54.40625 799.740662 C 27.917189 797.403137 6.492188 778.704712 1.16875 754.164063 C 0.65 751.306274 0.259375 748.450012 0.129687 745.46405 C -0 744.554688 -0 743.515625 -0 742.606262 L -0 127.251587 C -0 123.226563 0.389062 119.460938 1.16875 115.695313 C 4.026562 102.710938 11.296875 91.412476 21.554688 83.103149 C 25.190624 80.2453 29.085938 77.648438 33.5 75.701538 C 41.420315 71.935913 50.379688 69.857788 59.859379 69.857788 L 616.392212 69.857788 C 629.117188 69.857788 641.064087 73.623413 650.803162 80.2453 C 655.737488 83.621887 660.15155 87.646851 663.787537 92.190613 C 664.435974 92.970337 665.085938 93.878113 665.734375 94.787476 C 667.553162 97.384399 669.110901 99.981262 670.539063 102.837524 C 671.059387 103.876587 671.578125 104.915649 671.96875 105.954712 C 673.396851 109.459351 674.565613 113.096863 675.215637 116.860962 C 675.474976 118.029663 675.734375 119.198425 675.864075 120.496887 C 676.123413 122.707825 676.253113 124.914063 676.253113 127.251587 Z"/>
        <path id="path1" fill="#313333" stroke="none" d="M 159.714066 69.859375 L 159.714066 800 L 57.393749 800 C 56.484379 800 55.445313 800 54.535938 799.8703 C 28.046877 798.571899 6.3625 779.354675 1.16875 754.164063 C 0.65 751.306274 0.259375 748.450012 0.129687 745.46405 C 0 744.554688 0 743.515625 0 742.606262 L 0 127.251587 C 0 123.226563 0.389062 119.460938 1.16875 115.695313 C 3.895313 102.320313 11.296875 90.634399 21.554688 82.323425 C 25.320313 79.465637 29.345312 76.868774 33.760937 75.051575 C 39.053123 72.549988 44.940624 71.231262 51.018749 70.546875 C 52.289063 70.367188 53.567188 70.232788 54.862499 70.131226 C 55.721874 70.09375 56.524998 69.857788 57.393749 69.857788 L 159.714066 69.857788 Z"/>
        <path id="path2" fill="#b2536c" stroke="none" d="M 295.08905 366.078125 L 237.642197 337.581238 L 180.195313 366.078125 L 180.195313 69.868774 L 295.08905 69.868774 Z"/>
        <path id="path3" fill="#f5e529" stroke="none" d="M 609.865601 33.378113 L 186.943741 33.378113 L 87.414063 33.378113 C 56.546871 33.378113 31.510937 59.104675 31.510937 90.825012 L 31.510937 116.051575 C 31.510937 147.770325 56.546871 173.498413 87.414063 173.498413 L 186.943741 173.498413 L 609.865601 173.498413 C 640.732788 173.498413 665.768738 147.771851 665.768738 116.051575 L 665.768738 90.825012 C 665.768738 59.104675 640.732788 33.378113 609.865601 33.378113 Z"/>
        <path id="path4" fill="#f2f2f2" stroke="none" d="M 665.768738 98.404663 L 186.943741 98.404663 L 31.510937 98.404663 L 31.510937 745.995361 L 186.943741 745.995361 L 665.768738 745.995361 Z"/>
        <linearGradient id="linearGradient1" x1="31.510312" y1="742.616719" x2="665.769375" y2="742.616719" gradientUnits="userSpaceOnUse">
            <stop offset="1e-05" stop-color="#ffffff" stop-opacity="1"/>
            <stop offset="0.9952" stop-color="#f6f5f5" stop-opacity="1"/>
        </linearGradient>
        <path id="path5" fill="url(#linearGradient1)" stroke="none" d="M 634.364075 770.02655 L 53.420311 770.02655 C 41.370312 770.02655 31.509377 760.167175 31.509377 748.115662 L 31.509377 737.117188 C 31.509377 725.0672 41.368752 715.206238 53.420311 715.206238 L 643.857788 715.206238 C 655.907837 715.206238 665.768738 725.065613 665.768738 737.117188 L 665.768738 738.620361 C 665.768738 755.893738 651.637512 770.02655 634.364075 770.02655 Z"/>
        <path id="path6" fill="#69b6a9" stroke="none" d="M 650.803162 57.523438 L 650.803162 672.748413 C 650.803162 689.628113 643.53125 704.821899 631.974976 715.209412 C 621.846863 724.6875 608.212524 730.271851 593.279724 730.271851 L 57.393749 730.271851 C 49.34375 730.271851 41.81094 728.584351 34.929688 725.596863 C 33.760937 725.206238 32.592186 724.6875 31.554688 724.039063 C 28.048437 722.220337 24.671875 720.143738 21.55625 717.676514 C 21.165625 717.285889 20.646875 717.028137 20.257813 716.637512 C 17.401562 714.170288 14.803125 711.443726 12.467188 708.456238 C 4.675 698.717163 0 686.251526 0 672.748413 L 0 57.523438 C 0 25.709351 25.709375 0 57.393749 0 L 593.279724 0 C 622.885925 0 647.426575 22.46405 650.543762 51.549988 C 650.543762 51.549988 650.543762 51.549988 650.543762 51.679688 C 650.673462 53.628113 650.803162 55.576538 650.803162 57.523438 Z"/>
        <path id="path7" fill="#d6d7d7" stroke="none" d="M 181.321869 0.032837 L 181.321869 730.226563 L 21.598438 730.226563 L 21.598438 57.478149 C 21.598438 25.757813 47.325001 0.03125 79.045311 0.03125 L 181.321869 0.03125 Z"/>
        <path id="path8" fill="#505354" stroke="none" d="M 159.714066 0 L 159.714066 730.271851 L 0 730.271851 L 0 57.523438 C 0 25.709351 25.709375 0 57.393749 0 L 159.714066 0 Z"/>
        <path id="path9" fill="#ebe0ac" stroke="none" d="M 453.770294 194.865601 L 389.565643 160.092163 L 325.360931 194.865601 L 325.360931 0.032837 L 453.770294 0.032837 Z"/>
        <path id="path10" fill="#bdb595" stroke="none" d="M 418.632782 76.351563 L 396.689056 76.351563 L 394.610931 69.859375 L 389.676575 54.796875 L 389.417206 54.796875 L 384.612488 69.859375 L 382.534393 76.351563 L 360.459381 76.351563 L 360.459381 76.610962 L 378.248444 89.726563 L 375.392212 98.426575 L 371.237488 111.542175 L 371.496857 111.542175 L 389.15625 98.426575 L 389.545319 98.167175 L 389.934387 98.426575 L 407.593719 111.542175 L 407.853119 111.542175 L 403.698456 98.426575 L 400.842194 89.726563 L 418.631256 76.610962 L 418.631256 76.351563 Z"/>
        <path id="path11" fill="#040000" stroke="none" opacity="0.04" d="M 676.253113 127.251587 L 676.253113 742.606262 C 676.253113 774.289063 649.5047 800 616.393738 800 L 57.393749 800 C 56.484379 800 55.445313 800 54.535938 799.8703 C 28.046877 798.571899 6.3625 779.354675 1.16875 754.164063 C 0.65 751.306274 0.259375 748.450012 0.129687 745.46405 C -0 744.554688 -0 743.515625 -0 742.606262 L -0 720.273438 L 12.465625 708.456238 L 21.554688 699.885925 L 31.553125 690.40625 L 159.714066 569.128113 L 181.268753 548.742188 L 577.957825 173.478149 L 650.803162 104.528137 L 657.165649 98.424988 L 663.787537 92.1922 L 665.734375 90.375 L 665.734375 94.789063 C 667.553162 97.385925 669.110901 99.982788 670.539063 102.83905 C 671.059387 103.878113 671.578125 104.917175 671.96875 105.956238 C 673.396851 109.460938 674.565613 113.09845 675.215637 116.862488 C 675.474976 118.03125 675.734375 119.200012 675.864075 120.498413 C 676.123413 122.707825 676.253113 124.914063 676.253113 127.251587 Z"/>
    </g>
    <g id="settings-gear-svgrepo-com-3">
        <path id="path12" fill="#507c5c" stroke="none" d="M 361.983185 643.51062 L 317.332886 643.51062 C 311.523193 643.51062 306.572205 639.289734 305.654449 633.552795 L 302.805786 615.746094 C 292.883606 611.911743 283.537903 606.508728 275.238556 599.807983 L 258.374603 606.254028 C 252.946564 608.328064 246.817459 606.152161 243.911377 601.121948 L 221.585434 562.453552 C 218.680161 557.421753 219.861511 551.024963 224.3694 547.361206 L 238.371735 535.984375 C 237.551025 530.724487 237.137024 525.394287 237.137024 520.063232 C 237.137024 514.732239 237.551834 509.399597 238.372543 504.138123 L 224.3694 492.761261 C 219.859894 489.097534 218.680161 482.700775 221.585434 477.669739 L 243.911377 438.999786 C 246.81665 433.966309 252.946564 431.792816 258.375427 433.866058 L 275.240173 440.313721 C 283.541138 433.614563 292.886017 428.213196 302.804962 424.380493 L 305.653625 406.569702 C 306.571381 400.83194 311.520752 396.611115 317.332092 396.611115 L 361.980774 396.611115 C 367.790466 396.611115 372.739868 400.830322 373.657593 406.567261 L 377.630219 431.377197 C 378.663574 437.827332 374.271332 443.891724 367.822815 444.923492 C 361.379181 445.956879 355.308289 441.564606 354.27655 435.116119 L 351.898468 420.262329 L 327.417633 420.262329 L 325.042786 435.113708 C 324.328827 439.585205 321.122742 443.254578 316.787903 444.566101 C 305.284912 448.043854 294.544434 454.252991 285.729187 462.519226 C 282.426117 465.615326 277.646545 466.555695 273.416809 464.938507 L 259.349792 459.561401 L 247.108551 480.762604 L 258.779724 490.244934 C 262.287384 493.095215 263.863312 497.694458 262.842896 502.097229 C 261.479614 507.972412 260.787445 514.016602 260.787445 520.063232 C 260.787445 526.110718 261.477997 532.154114 262.841278 538.023682 C 263.864136 542.426392 262.288177 547.028076 258.778931 549.878418 L 247.107742 559.360718 L 259.351379 580.560303 L 273.418427 575.183167 C 277.646545 573.567627 282.430145 574.506409 285.732422 577.604919 C 294.54364 585.872742 305.283295 592.081055 316.788727 595.560425 C 321.122742 596.870361 324.328003 600.540527 325.04361 605.012024 L 327.418427 619.858521 L 351.900909 619.858521 L 354.278961 605.009644 C 354.994568 600.540527 358.199005 596.871155 362.532227 595.560425 C 374.036835 592.081055 384.773285 585.871094 393.584473 577.604919 C 396.885956 574.506409 401.669586 573.565979 405.897675 575.183167 L 419.967926 580.560303 L 432.206757 559.359863 L 420.53476 549.877563 C 417.023865 547.024048 415.447113 542.417542 416.474823 538.012329 C 417.837311 532.171082 418.527832 526.131714 418.527832 520.063232 C 418.527832 513.995605 417.837311 507.954651 416.474823 502.107727 C 414.991882 495.746552 418.946686 489.388641 425.307861 487.90567 C 431.671448 486.422729 438.026978 490.377533 439.509918 496.738708 C 441.282349 504.344269 442.181488 512.190857 442.181488 520.063232 C 442.181488 525.406433 441.767517 530.737427 440.948425 535.986023 L 454.949127 547.360413 C 459.458649 551.02417 460.638367 557.420898 457.733887 562.451904 L 435.411163 601.119507 C 432.50592 606.152954 426.376007 608.328857 420.947937 606.253235 L 404.076721 599.807983 C 395.778198 606.508728 386.433319 611.911743 376.511932 615.746887 L 373.659241 633.555237 C 372.741486 639.290527 367.792114 643.51062 361.983185 643.51062 Z"/>
        <path id="path13" fill="#cff09e" stroke="none" d="M 374.55191 520.06488 C 374.55191 539.337585 358.928314 554.961182 339.65564 554.961182 C 320.382935 554.961182 304.759338 539.337585 304.759338 520.06488 C 304.759338 500.792206 320.382935 485.16861 339.65564 485.16861 C 358.928314 485.16861 374.55191 500.792206 374.55191 520.06488 Z"/>
        <path id="path14" fill="#507c5c" stroke="none" d="M 339.658051 566.783569 C 313.894775 566.783569 292.93454 545.824097 292.93454 520.061646 C 292.93454 494.299194 313.894775 473.339752 339.658051 473.339752 C 365.421326 473.339752 386.379974 494.299194 386.379974 520.061646 C 386.379974 545.824097 365.421326 566.783569 339.658051 566.783569 Z M 339.658051 496.990173 C 326.936523 496.990173 316.586578 507.339325 316.586578 520.060059 C 316.586578 532.780762 326.935699 543.129883 339.658051 543.129883 C 352.379578 543.129883 362.727905 532.780762 362.727905 520.060059 C 362.728729 507.339325 352.379578 496.990173 339.658051 496.990173 Z"/>
        <path id="path15" fill="#cff09e" stroke="none" d="M 605.036255 367.44046 C 605.036255 360.338593 604.220337 353.432434 602.673523 346.800385 L 622.171814 330.95932 L 599.849121 292.289337 L 576.358032 301.267944 C 566.323364 291.859192 554.145203 284.708008 540.637756 280.622192 L 536.666809 255.812256 L 492.016479 255.812256 L 488.048737 280.622192 C 474.537201 284.708008 462.359039 291.859192 452.324463 301.267944 L 428.836548 292.289337 L 406.508972 330.95932 L 426.00647 346.800385 C 424.466919 353.432434 423.644592 360.338593 423.644592 367.44046 C 423.644592 374.537445 424.466125 381.448425 426.00647 388.076447 L 406.508972 403.917542 L 428.836548 442.585052 L 452.324463 433.606476 C 462.359039 443.020905 474.537201 450.171234 488.048737 454.257019 L 492.016479 479.060516 L 536.666809 479.060516 L 540.637756 454.257019 C 554.145203 450.171234 566.323364 443.020081 576.358032 433.606476 L 599.849121 442.585052 L 622.171814 403.917542 L 602.673523 388.076447 C 604.219543 381.447632 605.036255 374.536621 605.036255 367.44046 Z M 514.34082 402.333496 C 495.068085 402.333496 479.444519 386.70993 479.444519 367.437225 C 479.444519 348.16449 495.068085 332.5401 514.34082 332.5401 C 533.613525 332.5401 549.237122 348.163666 549.237122 367.436401 C 549.237122 386.709137 533.613525 402.333496 514.34082 402.333496 Z"/>
        <path id="path16" fill="#507c5c" stroke="none" d="M 536.665955 490.887756 L 492.015656 490.887756 C 486.205933 490.887756 481.254944 486.666901 480.337189 480.929169 L 477.489349 463.122437 C 467.566345 459.288086 458.221497 453.885101 449.922119 447.184326 L 433.058167 453.630402 C 427.630127 455.704407 421.49942 453.530121 418.594147 448.498291 L 396.266571 409.829926 C 393.361298 404.798065 394.542664 398.401306 399.050537 394.73761 L 413.05368 383.360748 C 412.232971 378.100861 411.81897 372.77066 411.81897 367.439636 C 411.81897 362.108582 412.233795 356.77594 413.054504 351.514465 L 399.051361 340.13681 C 394.54184 336.473114 393.362122 330.076324 396.267395 325.044464 L 418.59494 286.374512 C 421.500214 281.342651 427.630127 279.167603 433.05899 281.242432 L 449.923737 287.690063 C 458.223114 280.99176 467.56958 275.589539 477.488525 271.756836 L 480.336395 253.944458 C 481.25415 248.206665 486.203522 243.98584 492.014862 243.98584 L 536.665161 243.98584 C 542.474915 243.98584 547.424255 248.205078 548.343628 253.942017 L 551.194702 271.755249 C 561.112854 275.587952 570.457703 280.990112 578.757874 287.688477 L 595.627441 281.240784 C 601.057983 279.165161 607.187073 281.342651 610.091553 286.374512 L 632.414246 325.044464 C 635.318665 330.076324 634.138184 336.473114 629.629456 340.135986 L 615.627136 351.510406 C 616.447815 356.762207 616.861877 362.093231 616.861877 367.438019 C 616.861877 372.782776 616.447815 378.112213 615.628723 383.361572 L 629.629456 394.735962 C 634.138977 398.399719 635.320313 404.79483 632.414246 409.827484 L 610.091553 448.495819 C 607.186279 453.529327 601.055542 455.703613 595.627441 453.629578 L 578.760315 447.181885 C 570.461792 453.883484 561.116089 459.285675 551.195496 463.120789 L 548.342773 480.929169 C 547.425049 486.666901 542.475647 490.887756 536.665955 490.887756 Z M 502.101227 467.235718 L 526.583618 467.235718 L 528.961731 452.388397 C 529.677307 447.918518 532.881775 444.249969 537.215027 442.938416 C 548.718018 439.459076 559.456055 433.249084 568.267212 424.982086 C 571.568726 421.883545 576.351501 420.943176 580.581238 422.560364 L 594.650696 427.937469 L 606.889526 406.737061 L 595.217529 397.25473 C 591.705017 394.401215 590.129089 389.794678 591.157593 385.388702 C 592.520081 379.547424 593.210632 373.509705 593.210632 367.439636 C 593.210632 361.371979 592.520081 355.3302 591.156799 349.4841 C 590.129089 345.078918 591.705811 340.472382 595.216736 337.620483 L 606.89032 328.13736 L 594.650696 306.937744 L 580.581238 312.31488 C 576.352356 313.93045 571.573547 312.992493 568.270508 309.895569 C 559.454468 301.630157 548.71637 295.421814 537.214172 291.942474 C 532.88092 290.632538 529.676514 286.962341 528.960938 282.492493 L 526.583618 267.638672 L 502.101227 267.638672 L 499.726379 282.490051 C 499.01239 286.961548 495.806335 290.630951 491.471466 291.942474 C 479.966858 295.421814 469.227997 301.629364 460.412781 309.895569 C 457.10968 312.992493 452.328461 313.93045 448.100372 312.31488 L 434.033356 306.937744 L 421.791321 328.138947 L 433.462463 337.621277 C 436.970154 340.471558 438.546082 345.070831 437.525665 349.473572 C 436.162384 355.348785 435.470215 361.393005 435.470215 367.439636 C 435.470215 373.487061 436.160736 379.530487 437.524048 385.400848 C 438.546906 389.803589 436.96933 394.403656 433.4617 397.253937 L 421.790497 406.736237 L 434.032562 427.936676 L 448.099579 422.55954 C 452.330109 420.943176 457.112122 421.882751 460.413574 424.981262 C 469.224762 433.249084 479.964447 439.457428 491.469849 442.936798 C 495.803894 444.246704 499.009155 447.917694 499.724731 452.389191 L 502.101227 467.235718 Z M 514.34082 414.159912 C 488.577545 414.159912 467.618896 393.20047 467.618896 367.438019 C 467.618896 341.675537 488.578369 320.716095 514.34082 320.716095 C 540.103271 320.716095 561.064331 341.675537 561.064331 367.438019 C 561.064331 393.20047 540.104065 414.159912 514.34082 414.159912 Z M 514.34082 344.36734 C 501.619293 344.36734 491.270966 354.716461 491.270966 367.437225 C 491.270966 380.157928 501.620117 390.50705 514.34082 390.50705 C 527.061523 390.50705 537.412292 380.157928 537.412292 367.437225 C 537.412292 354.716461 527.062378 344.36734 514.34082 344.36734 Z"/>
    </g>
</svg>
