<?xml version="1.0" encoding="UTF-8"?>
<!-- Generated by Pixelmator Pro 3.3.6 -->
<svg width="800" height="800" viewBox="0 0 800 800" xmlns="http://www.w3.org/2000/svg">
    <g id="notebook-svgrepo-com">
        <path id="Trazado" fill="#69b6a9" stroke="none" d="M 676.253113 127.251587 L 676.253113 742.606262 C 676.253113 774.289063 649.5047 800 616.393738 800 L 59.860939 800 C 58.042187 800 56.225002 799.8703 54.40625 799.740662 C 27.917189 797.403137 6.492188 778.704712 1.16875 754.164063 C 0.65 751.306274 0.259375 748.450012 0.129687 745.46405 C -0 744.554688 -0 743.515625 -0 742.606262 L -0 127.251587 C -0 123.226563 0.389062 119.460938 1.16875 115.695313 C 4.026562 102.710938 11.296875 91.412476 21.554688 83.103149 C 25.190624 80.2453 29.085938 77.648438 33.5 75.701538 C 41.420315 71.935913 50.379688 69.857788 59.859379 69.857788 L 616.392212 69.857788 C 629.117188 69.857788 641.064087 73.623413 650.803162 80.2453 C 655.737488 83.621887 660.15155 87.646851 663.787537 92.190613 C 664.435974 92.970337 665.085938 93.878113 665.734375 94.787476 C 667.553162 97.384399 669.110901 99.981262 670.539063 102.837524 C 671.059387 103.876587 671.578125 104.915649 671.96875 105.954712 C 673.396851 109.459351 674.565613 113.096863 675.215637 116.860962 C 675.474976 118.029663 675.734375 119.198425 675.864075 120.496887 C 676.123413 122.707825 676.253113 124.914063 676.253113 127.251587 Z"/>
        <path id="path1" fill="#313333" stroke="none" d="M 159.714066 69.859375 L 159.714066 800 L 57.393749 800 C 56.484379 800 55.445313 800 54.535938 799.8703 C 28.046877 798.571899 6.3625 779.354675 1.16875 754.164063 C 0.65 751.306274 0.259375 748.450012 0.129687 745.46405 C 0 744.554688 0 743.515625 0 742.606262 L 0 127.251587 C 0 123.226563 0.389062 119.460938 1.16875 115.695313 C 3.895313 102.320313 11.296875 90.634399 21.554688 82.323425 C 25.320313 79.465637 29.345312 76.868774 33.760937 75.051575 C 39.053123 72.549988 44.940624 71.231262 51.018749 70.546875 C 52.289063 70.367188 53.567188 70.232788 54.862499 70.131226 C 55.721874 70.09375 56.524998 69.857788 57.393749 69.857788 L 159.714066 69.857788 Z"/>
        <path id="path2" fill="#b2536c" stroke="none" d="M 295.08905 366.078125 L 237.642197 337.581238 L 180.195313 366.078125 L 180.195313 69.868774 L 295.08905 69.868774 Z"/>
        <path id="path3" fill="#f5e529" stroke="none" d="M 609.865601 33.378113 L 186.943741 33.378113 L 87.414063 33.378113 C 56.546871 33.378113 31.510937 59.104675 31.510937 90.825012 L 31.510937 116.051575 C 31.510937 147.770325 56.546871 173.498413 87.414063 173.498413 L 186.943741 173.498413 L 609.865601 173.498413 C 640.732788 173.498413 665.768738 147.771851 665.768738 116.051575 L 665.768738 90.825012 C 665.768738 59.104675 640.732788 33.378113 609.865601 33.378113 Z"/>
        <path id="path4" fill="#f2f2f2" stroke="none" d="M 665.768738 98.404663 L 186.943741 98.404663 L 31.510937 98.404663 L 31.510937 745.995361 L 186.943741 745.995361 L 665.768738 745.995361 Z"/>
        <linearGradient id="linearGradient1" x1="31.510312" y1="742.616719" x2="665.769375" y2="742.616719" gradientUnits="userSpaceOnUse">
            <stop offset="1e-05" stop-color="#ffffff" stop-opacity="1"/>
            <stop offset="0.9952" stop-color="#f6f5f5" stop-opacity="1"/>
        </linearGradient>
        <path id="path5" fill="url(#linearGradient1)" stroke="none" d="M 634.364075 770.02655 L 53.420311 770.02655 C 41.370312 770.02655 31.509377 760.167175 31.509377 748.115662 L 31.509377 737.117188 C 31.509377 725.0672 41.368752 715.206238 53.420311 715.206238 L 643.857788 715.206238 C 655.907837 715.206238 665.768738 725.065613 665.768738 737.117188 L 665.768738 738.620361 C 665.768738 755.893738 651.637512 770.02655 634.364075 770.02655 Z"/>
        <path id="path6" fill="#69b6a9" stroke="none" d="M 650.803162 57.523438 L 650.803162 672.748413 C 650.803162 689.628113 643.53125 704.821899 631.974976 715.209412 C 621.846863 724.6875 608.212524 730.271851 593.279724 730.271851 L 57.393749 730.271851 C 49.34375 730.271851 41.81094 728.584351 34.929688 725.596863 C 33.760937 725.206238 32.592186 724.6875 31.554688 724.039063 C 28.048437 722.220337 24.671875 720.143738 21.55625 717.676514 C 21.165625 717.285889 20.646875 717.028137 20.257813 716.637512 C 17.401562 714.170288 14.803125 711.443726 12.467188 708.456238 C 4.675 698.717163 0 686.251526 0 672.748413 L 0 57.523438 C 0 25.709351 25.709375 0 57.393749 0 L 593.279724 0 C 622.885925 0 647.426575 22.46405 650.543762 51.549988 C 650.543762 51.549988 650.543762 51.549988 650.543762 51.679688 C 650.673462 53.628113 650.803162 55.576538 650.803162 57.523438 Z"/>
        <path id="path7" fill="#d6d7d7" stroke="none" d="M 181.321869 0.032837 L 181.321869 730.226563 L 21.598438 730.226563 L 21.598438 57.478149 C 21.598438 25.757813 47.325001 0.03125 79.045311 0.03125 L 181.321869 0.03125 Z"/>
        <path id="path8" fill="#505354" stroke="none" d="M 159.714066 0 L 159.714066 730.271851 L 0 730.271851 L 0 57.523438 C 0 25.709351 25.709375 0 57.393749 0 L 159.714066 0 Z"/>
        <path id="path9" fill="#ebe0ac" stroke="none" d="M 453.770294 194.865601 L 389.565643 160.092163 L 325.360931 194.865601 L 325.360931 0.032837 L 453.770294 0.032837 Z"/>
        <path id="path10" fill="#bdb595" stroke="none" d="M 418.632782 76.351563 L 396.689056 76.351563 L 394.610931 69.859375 L 389.676575 54.796875 L 389.417206 54.796875 L 384.612488 69.859375 L 382.534393 76.351563 L 360.459381 76.351563 L 360.459381 76.610962 L 378.248444 89.726563 L 375.392212 98.426575 L 371.237488 111.542175 L 371.496857 111.542175 L 389.15625 98.426575 L 389.545319 98.167175 L 389.934387 98.426575 L 407.593719 111.542175 L 407.853119 111.542175 L 403.698456 98.426575 L 400.842194 89.726563 L 418.631256 76.610962 L 418.631256 76.351563 Z"/>
        <path id="path11" fill="#040000" stroke="none" opacity="0.04" d="M 676.253113 127.251587 L 676.253113 742.606262 C 676.253113 774.289063 649.5047 800 616.393738 800 L 57.393749 800 C 56.484379 800 55.445313 800 54.535938 799.8703 C 28.046877 798.571899 6.3625 779.354675 1.16875 754.164063 C 0.65 751.306274 0.259375 748.450012 0.129687 745.46405 C -0 744.554688 -0 743.515625 -0 742.606262 L -0 720.273438 L 12.465625 708.456238 L 21.554688 699.885925 L 31.553125 690.40625 L 159.714066 569.128113 L 181.268753 548.742188 L 577.957825 173.478149 L 650.803162 104.528137 L 657.165649 98.424988 L 663.787537 92.1922 L 665.734375 90.375 L 665.734375 94.789063 C 667.553162 97.385925 669.110901 99.982788 670.539063 102.83905 C 671.059387 103.878113 671.578125 104.917175 671.96875 105.956238 C 673.396851 109.460938 674.565613 113.09845 675.215637 116.862488 C 675.474976 118.03125 675.734375 119.200012 675.864075 120.498413 C 676.123413 122.707825 676.253113 124.914063 676.253113 127.251587 Z"/>
    </g>
    <g id="Circle-icons-gear">
        <g id="Layer1">
            <g id="Agrupar">
                <path id="path12" fill="#76c2af" stroke="none" d="M 589 445 C 589 549.381836 504.381805 634 400 634 C 295.618195 634 211 549.381836 211 445 C 211 340.618195 295.618195 256 400 256 C 504.381805 256 589 340.618195 589 445 Z"/>
            </g>
            <g id="g1" opacity="0.2">
                <g id="g2">
                    <path id="path13" fill="#231f20" stroke="none" d="M 373.421875 456.8125 C 373.421875 471.578125 385.234375 483.390625 400 483.390625 C 414.765625 483.390625 426.578125 471.578125 426.578125 456.8125 C 426.578125 442.046875 414.765625 430.234375 400 430.234375 C 385.234375 430.234375 373.421875 442.046875 373.421875 456.8125 Z"/>
                </g>
            </g>
            <g id="g3" opacity="0.2">
                <path id="path14" fill="#231f20" stroke="none" d="M 529.346863 448.543732 C 529.346863 445.590607 526.393738 442.046875 523.440613 440.865631 L 499.225006 432.006256 C 496.271881 430.824982 492.728119 427.28125 491.546875 424.328125 L 487.412506 414.878143 C 486.231232 411.925018 486.231232 407.199982 487.412506 404.246857 L 498.634369 381.212494 C 499.815643 378.259369 499.225006 374.125 497.453125 371.762482 L 485.640625 359.949982 C 483.278107 357.587494 478.553131 356.996857 476.190643 358.768768 L 453.15625 369.990631 C 450.203125 371.171875 445.478119 371.171875 442.524994 369.990631 L 433.074982 365.856232 C 430.121857 364.675018 426.578125 361.131256 425.396881 358.178131 L 416.537506 333.962494 C 415.356232 331.009369 411.8125 328.056244 408.859375 328.056244 C 408.859375 328.056244 405.315643 327.465607 400.590607 327.465607 C 395.865631 327.465607 392.321869 328.056244 392.321869 328.056244 C 389.368744 328.056244 385.825012 331.009369 384.643738 333.962494 L 375.784363 358.178131 C 374.603119 361.131256 371.059387 364.675018 368.106262 365.856232 L 358.65625 369.990631 C 355.703125 371.171875 350.978119 371.171875 348.024994 369.990631 L 324.990631 358.768768 C 322.037506 357.587494 317.903137 358.178131 315.540619 359.949982 L 303.728119 371.762482 C 301.365631 374.125 300.774994 378.850006 302.546875 381.212494 L 313.768738 404.246857 C 314.950012 407.199982 314.950012 411.925018 313.768738 414.878143 L 309.634369 424.328125 C 308.453125 427.28125 304.909363 430.824982 301.956238 432.006256 L 277.740631 440.865631 C 274.787506 442.046875 271.834381 445.590607 271.834381 448.543732 C 271.834381 448.543732 271.243744 452.087494 271.243744 456.8125 C 271.243744 461.537506 271.834381 465.081268 271.834381 465.081268 C 271.834381 468.034393 274.787506 471.578125 277.740631 472.759369 L 301.956238 481.618744 C 304.909363 482.800018 308.453125 486.34375 309.634369 489.296875 L 313.768738 498.746857 C 314.950012 501.699982 314.950012 506.425018 313.768738 509.378143 L 302.546875 532.412476 C 301.365631 535.365601 301.956238 539.5 303.728119 541.862549 L 315.540619 553.674988 C 317.903137 556.037476 322.628113 556.628113 324.990631 554.856262 L 348.024994 543.634399 C 350.978119 542.453125 355.703125 542.453125 358.65625 543.634399 L 368.106262 547.768738 C 371.059387 548.950012 374.603119 552.493774 375.784363 555.446899 L 384.643738 579.662476 C 385.825012 582.615601 389.368744 585.568726 392.321869 585.568726 C 392.321869 585.568726 395.865631 586.159363 400.590607 586.159363 C 405.315643 586.159363 408.859375 585.568726 408.859375 585.568726 C 411.8125 585.568726 415.356232 582.615601 416.537506 579.662476 L 425.396881 555.446899 C 426.578125 552.493774 430.121857 548.950012 433.074982 547.768738 L 442.524994 543.634399 C 445.478119 542.453125 450.203125 542.453125 453.15625 543.634399 L 476.190643 554.856262 C 479.143768 556.037476 483.278107 555.446899 485.640625 553.674988 L 497.453125 541.862549 C 499.815643 539.5 500.40625 534.775024 498.634369 532.412476 L 487.412506 509.378143 C 486.231232 506.425018 486.231232 501.699982 487.412506 498.746857 L 491.546875 489.296875 C 492.728119 486.34375 496.271881 482.800018 499.225006 481.618744 L 523.440613 472.759369 C 526.393738 471.578125 529.346863 468.034393 529.346863 465.081268 C 529.346863 465.081268 529.9375 461.537506 529.9375 456.8125 C 529.9375 452.087494 529.346863 448.543732 529.346863 448.543732 Z M 400 515.875 C 367.515625 515.875 340.9375 489.296875 340.9375 456.8125 C 340.9375 424.328125 367.515625 397.75 400 397.75 C 432.484375 397.75 459.0625 424.328125 459.0625 456.8125 C 459.0625 489.296875 432.484375 515.875 400 515.875 Z"/>
            </g>
            <g id="g4">
                <g id="g5">
                    <path id="path15" fill="#4f5d73" stroke="none" d="M 373.421875 445 C 373.421875 459.765625 385.234375 471.578125 400 471.578125 C 414.765625 471.578125 426.578125 459.765625 426.578125 445 C 426.578125 430.234375 414.765625 418.421875 400 418.421875 C 385.234375 418.421875 373.421875 430.234375 373.421875 445 Z"/>
                </g>
            </g>
            <g id="g6">
                <path id="path16" fill="#ffffff" stroke="none" d="M 529.346863 436.731232 C 529.346863 433.778107 526.393738 430.234375 523.440613 429.053131 L 499.225006 420.193756 C 496.271881 419.012482 492.728119 415.46875 491.546875 412.515625 L 487.412506 403.065643 C 486.231232 400.112518 486.231232 395.387482 487.412506 392.434357 L 498.634369 369.399994 C 499.815643 366.446869 499.225006 362.3125 497.453125 359.949982 L 485.640625 348.137482 C 483.278107 345.774994 478.553131 345.184357 476.190643 346.956268 L 453.15625 358.178131 C 450.203125 359.359375 445.478119 359.359375 442.524994 358.178131 L 433.074982 354.043732 C 430.121857 352.862518 426.578125 349.318756 425.396881 346.365631 L 416.537506 322.149994 C 415.356232 319.196869 411.8125 316.243744 408.859375 316.243744 C 408.859375 316.243744 405.315643 315.653107 400.590607 315.653107 C 395.865631 315.653107 392.321869 316.243744 392.321869 316.243744 C 389.368744 316.243744 385.825012 319.196869 384.643738 322.149994 L 375.784363 346.365631 C 374.603119 349.318756 371.059387 352.862518 368.106262 354.043732 L 358.65625 358.178131 C 355.703125 359.359375 350.978119 359.359375 348.024994 358.178131 L 324.990631 346.956268 C 322.037506 345.774994 317.903137 346.365631 315.540619 348.137482 L 303.728119 359.949982 C 301.365631 362.3125 300.774994 367.037506 302.546875 369.399994 L 313.768738 392.434357 C 314.950012 395.387482 314.950012 400.112518 313.768738 403.065643 L 309.634369 412.515625 C 308.453125 415.46875 304.909363 419.012482 301.956238 420.193756 L 277.740631 429.053131 C 274.787506 430.234375 271.834381 433.778107 271.834381 436.731232 C 271.834381 436.731232 271.243744 440.274994 271.243744 445 C 271.243744 449.725006 271.834381 453.268768 271.834381 453.268768 C 271.834381 456.221893 274.787506 459.765625 277.740631 460.946869 L 301.956238 469.806244 C 304.909363 470.987518 308.453125 474.53125 309.634369 477.484375 L 313.768738 486.934357 C 314.950012 489.887482 314.950012 494.612518 313.768738 497.565643 L 302.546875 520.599976 C 301.365631 523.553101 301.956238 527.6875 303.728119 530.050049 L 315.540619 541.862549 C 317.903137 544.224976 322.628113 544.815613 324.990631 543.043701 L 348.024994 531.821899 C 350.978119 530.640625 355.703125 530.640625 358.65625 531.821899 L 368.106262 535.956299 C 371.059387 537.137451 374.603119 540.681274 375.784363 543.634399 L 384.643738 567.849976 C 385.825012 570.803101 389.368744 573.756226 392.321869 573.756226 C 392.321869 573.756226 395.865631 574.346863 400.590607 574.346863 C 405.315643 574.346863 408.859375 573.756226 408.859375 573.756226 C 411.8125 573.756226 415.356232 570.803101 416.537506 567.849976 L 425.396881 543.634399 C 426.578125 540.681274 430.121857 537.137451 433.074982 535.956299 L 442.524994 531.821899 C 445.478119 530.640625 450.203125 530.640625 453.15625 531.821899 L 476.190643 543.043701 C 479.143768 544.224976 483.278107 543.634399 485.640625 541.862549 L 497.453125 530.050049 C 499.815643 527.6875 500.40625 522.962524 498.634369 520.599976 L 487.412506 497.565643 C 486.231232 494.612518 486.231232 489.887482 487.412506 486.934357 L 491.546875 477.484375 C 492.728119 474.53125 496.271881 470.987518 499.225006 469.806244 L 523.440613 460.946869 C 526.393738 459.765625 529.346863 456.221893 529.346863 453.268768 C 529.346863 453.268768 529.9375 449.725006 529.9375 445 C 529.9375 440.274994 529.346863 436.731232 529.346863 436.731232 Z M 400 504.0625 C 367.515625 504.0625 340.9375 477.484375 340.9375 445 C 340.9375 412.515625 367.515625 385.9375 400 385.9375 C 432.484375 385.9375 459.0625 412.515625 459.0625 445 C 459.0625 477.484375 432.484375 504.0625 400 504.0625 Z"/>
            </g>
        </g>
        <g id="Layer2"/>
    </g>
</svg>
